<svg width="17" height="20" viewBox="0 0 17 20" fill="none" xmlns="http://www.w3.org/2000/svg">
<g clip-path="url(#clip0_130_54)">
<path d="M2.61719 20H16.7578V18.3203H2.61719C2.04427 18.3203 1.75781 18.0469 1.75781 17.5C1.75781 16.9531 2.04427 16.6797 2.61719 16.6797H16.7578V0H2.61719C1.88802 0 1.28906 0.240885 0.820312 0.722656C0.351562 1.20443 0.117188 1.79688 0.117188 2.5V16.6797H0.273438C0.169271 16.9922 0.117188 17.2656 0.117188 17.5C0.117188 18.2031 0.351562 18.7956 0.820312 19.2773C1.28906 19.7591 1.88802 20 2.61719 20ZM1.75781 2.5C1.75781 1.95312 2.04427 1.67969 2.61719 1.67969H15.1172V15H2.61719C2.40885 15 2.1224 15.0521 1.75781 15.1562V2.5ZM5.11719 6.67969H12.6172V8.32031H5.11719V6.67969ZM5.11719 3.32031H12.6172V5H5.11719V3.32031Z" fill="black"/>
</g>
<defs>
<clipPath id="clip0_130_54">
<rect width="16.875" height="20" fill="white"/>
</clipPath>
</defs>
</svg>
